<?xml version="1.0" encoding="UTF-8" standalone="no" ?>
<!DOCTYPE svg PUBLIC "-//W3C//DTD SVG 1.1//EN" "http://www.w3.org/Graphics/SVG/1.1/DTD/svg11.dtd">
<svg xmlns="http://www.w3.org/2000/svg" xmlns:xlink="http://www.w3.org/1999/xlink" version="1.1" width="1080" height="1080" viewBox="0 0 1080 1080" xml:space="preserve">
<desc>Created with Fabric.js 5.2.4</desc>
<defs>
</defs>
<g transform="matrix(1 0 0 1 540 540)" id="b783ccc3-3465-45cf-bd90-9d25a30b6884"  >
<rect style="stroke: none; stroke-width: 1; stroke-dasharray: none; stroke-linecap: butt; stroke-dashoffset: 0; stroke-linejoin: miter; stroke-miterlimit: 4; fill: rgb(255,255,255); fill-rule: nonzero; opacity: 1; visibility: hidden;" vector-effect="non-scaling-stroke"  x="-540" y="-540" rx="0" ry="0" width="1080" height="1080" />
</g>
<g transform="matrix(1 0 0 1 540 540)" id="e7d13168-3122-4126-91c4-8a09bca69793"  >
</g>
<g transform="matrix(1.56 0 0 1.56 540 540)"  >
<path style="stroke: none; stroke-width: 1; stroke-dasharray: none; stroke-linecap: butt; stroke-dashoffset: 0; stroke-linejoin: miter; stroke-miterlimit: 4; fill: rgb(0,0,0); fill-rule: nonzero; opacity: 1;" vector-effect="non-scaling-stroke"  transform=" translate(-256, -256)" d="M 471.595 235.798 L 394.103 235.798 C 394.103 204.153 353.697 204.171 353.697 235.798 L 276.204 235.798 L 276.204 158.305 C 307.849 158.305 307.831 117.899 276.204 117.899 L 276.204 40.407 C 309.38 40.407 304.732 0.0009999999999976694 279.577 0.0009999999999976694 L 232.425 0.0009999999999976694 C 206.817 0.0009999999999976694 203.174 40.407 235.79700000000003 40.407 L 235.79700000000003 117.899 C 203.87900000000002 117.899 204.49900000000002 158.305 235.79700000000003 158.305 L 235.79700000000003 235.798 L 158.30400000000003 235.798 C 158.30400000000003 204.362 117.89800000000002 204.18200000000002 117.89800000000002 235.798 L 40.407 235.798 C 40.407 202.622 0.0009999999999976694 207.27 0.0009999999999976694 232.425 L 0.0009999999999976694 279.577 C 0.0009999999999976694 304.723 40.407 309.348 40.407 276.204 L 117.899 276.204 C 117.899 307.589 158.305 308.00600000000003 158.305 276.204 L 235.798 276.204 L 235.798 353.696 C 204.153 353.696 204.171 394.10200000000003 235.798 394.10200000000003 L 235.798 471.595 C 202.622 471.595 207.27 512.001 232.425 512.001 L 279.577 512.001 C 304.738 512.001 309.358 471.59499999999997 276.204 471.59499999999997 L 276.204 394.102 L 279.577 394.102 C 304.738 394.102 309.358 353.69599999999997 276.204 353.69599999999997 L 276.204 276.20399999999995 L 353.697 276.20399999999995 C 353.697 307.84899999999993 394.103 307.83099999999996 394.103 276.20399999999995 L 471.595 276.20399999999995 C 471.595 308.79799999999994 512.001 305.2169999999999 512.001 279.57599999999996 L 512.001 232.42399999999998 C 512.001 207.264 471.595 202.644 471.595 235.798 z" stroke-linecap="round" />
</g>
</svg>